<?xml version="1.0" encoding="utf-8"?>
<!-- Generator: Adobe Illustrator 23.0.3, SVG Export Plug-In . SVG Version: 6.00 Build 0)  -->
<svg version="1.1" id="Layer_1" xmlns="http://www.w3.org/2000/svg" xmlns:xlink="http://www.w3.org/1999/xlink" x="0px" y="0px"
	 viewBox="0 0 28 28" style="enable-background:new 0 0 28 28;" xml:space="preserve">
<style type="text/css">
	.st0{fill-rule:evenodd;clip-rule:evenodd;}
</style>
<path class="st0" d="M14,28C6.3,28,0,21.7,0,14C0,6.3,6.3,0,14,0c7.7,0,14,6.3,14,14C28,21.7,21.7,28,14,28z M14,4C8.5,4,4,8.5,4,14
	c0,5.5,4.5,10,10,10c5.5,0,10-4.5,10-10C24,8.5,19.5,4,14,4z M17.1,16.5c-0.1,0.1-0.2,0.3-0.3,0.4c-0.1,0.1-0.2,0.2-0.4,0.3
	c-0.4,0.3-0.9,0.6-1.4,0.7c-2.6,1.1-6.7,1.8-6.7,1.8s0.8-4.1,1.8-6.7c0.1-0.5,0.4-1,0.7-1.4c0.1-0.1,0.2-0.3,0.3-0.4
	c0.1-0.1,0.2-0.2,0.4-0.3c0.4-0.3,0.9-0.6,1.4-0.7c2.6-1.1,6.7-1.8,6.7-1.8s-0.8,4.1-1.8,6.7C17.7,15.6,17.5,16,17.1,16.5z
	 M14.7,13.3c-0.4-0.4-1-0.4-1.4,0s-0.4,1,0,1.4s1,0.4,1.4,0S15.1,13.7,14.7,13.3z"/>
</svg>
